<svg width="161" height="30" viewBox="0 0 161 30" fill="none" xmlns="http://www.w3.org/2000/svg">
<path d="M2.14509 4.22837C0.923027 4.22837 0.03125 3.32943 0.03125 2.13083C0.03125 0.898946 0.923027 0 2.14509 0C3.36716 0 4.25893 0.898946 4.25893 2.13083C4.25893 3.32943 3.36716 4.22837 2.14509 4.22837ZM3.96168 23.3393H0.29548V6.82533H3.96168V23.3393Z" fill="#FF5A00"/>
<path d="M10.4568 23.3393H6.79056V6.82533H10.2916V8.52334C11.3485 7.25815 13.033 6.49238 15.1138 6.49238C19.1433 6.49238 22.0168 9.38899 22.0168 13.9503V23.3393H18.3506V14.2832C18.3506 11.5864 16.8974 9.98828 14.5193 9.98828C12.0752 9.98828 10.4568 11.653 10.4568 14.2832V23.3393Z" fill="#FF5A00"/>
<path d="M29.5829 23.3393H25.9167V10.2213H23.3734V6.82533H25.9167V5.85979C25.9167 2.66354 28.2287 0.366236 31.9279 0.366236H33.8105V3.62908H32.093C30.3755 3.62908 29.5829 4.46143 29.5829 5.99297V6.82533H34.0748V10.2213H29.5829V23.3393Z" fill="#FF5A00"/>
<path d="M39.655 23.3393H35.9888V0.366236H39.655V23.3393Z" fill="#FF5A00"/>
<path d="M49.8163 23.6722C45.3904 23.6722 42.2527 20.7756 42.2527 15.9813V6.82533H45.9189V15.8481C45.9189 18.6115 47.4713 20.1763 49.8163 20.1763C52.1944 20.1763 53.7137 18.6115 53.7137 15.8481V6.82533H57.3799V15.9813C57.3799 20.7756 54.2422 23.6722 49.8163 23.6722Z" fill="#FF5A00"/>
<path d="M67.416 23.6722C62.9901 23.6722 59.8524 20.7756 59.8524 15.9813V6.82533H63.5186V15.8481C63.5186 18.6115 65.0709 20.1763 67.416 20.1763C69.794 20.1763 71.3134 18.6115 71.3134 15.8481V6.82533H74.9795V15.9813C74.9795 20.7756 71.8418 23.6722 67.416 23.6722Z" fill="#FF5A00"/>
<path d="M81.2759 23.3393H77.6097V6.82533H81.1108V9.12263C82.0356 7.69098 83.588 6.82533 85.9 6.82533H87.023V10.521H85.4706C82.498 10.521 81.2759 12.1524 81.2759 14.7161V23.3393Z" fill="#FF5A00"/>
<path d="M152.426 23.5239C147.817 23.5239 144.262 19.7631 144.262 15.0039C144.262 10.2446 147.784 6.48381 152.294 6.48381C156.969 6.48381 160.294 9.94509 160.294 14.6378C160.294 14.904 160.294 15.2368 160.228 15.5697H146.171C146.402 19.1973 149.002 21.76 152.426 21.76C155.06 21.76 157.166 20.3289 158.253 18.1989L159.833 19.0975C158.351 21.8266 155.619 23.5239 152.426 23.5239ZM152.294 8.28102C149.134 8.28102 146.665 10.6107 146.204 13.8723H158.351C158.154 10.6773 155.784 8.28102 152.294 8.28102Z" fill="#2D2D2D"/>
<path d="M136.873 23.5239C133.516 23.5239 131.178 21.6935 130.52 19.2306L132.396 18.5983C132.923 20.5286 134.503 21.7933 136.873 21.7933C139.375 21.7933 140.922 20.7616 140.922 18.8978C140.922 16.9675 139.54 16.4017 137.005 15.969L135.853 15.7361C132.363 15.137 130.816 13.9389 130.816 11.1765C130.816 8.18117 133.318 6.48381 136.445 6.48381C139.704 6.48381 141.91 8.38086 142.568 10.6107L140.692 11.2764C140.264 9.67884 138.816 8.24773 136.445 8.24773C134.339 8.24773 132.725 9.24618 132.725 11.1765C132.725 13.1068 134.141 13.6393 136.643 14.072L137.795 14.2717C141.252 14.904 142.832 16.1687 142.832 18.8978C142.832 21.7933 140.363 23.5239 136.873 23.5239Z" fill="#2D2D2D"/>
<path d="M128.062 23.1919H126.153V0.227633H128.062V23.1919Z" fill="#2D2D2D"/>
<path d="M116.3 23.5252C112.185 23.5252 109.354 20.7296 109.354 16.17V6.81793H111.263V16.1035C111.263 19.6313 113.238 21.6948 116.3 21.6948C119.361 21.6948 121.336 19.6313 121.336 16.1035V6.81793H123.246V16.17C123.246 20.7296 120.414 23.5252 116.3 23.5252Z" fill="#2D2D2D"/>
<path d="M92.6049 29.7143H90.6956V6.81663H92.572V10.2779C93.8229 7.98148 96.3248 6.48381 99.1888 6.48381C103.863 6.48381 107.419 10.2446 107.419 15.0039C107.419 19.7631 103.863 23.524 99.1888 23.524C96.3906 23.524 93.8888 22.0928 92.6049 19.8297V29.7143ZM99.0571 21.6935C102.744 21.6935 105.509 18.8313 105.509 15.0039C105.509 11.1765 102.744 8.3143 99.0571 8.3143C95.3701 8.3143 92.572 11.1765 92.572 15.0039C92.572 18.8313 95.3701 21.6935 99.0571 21.6935Z" fill="#2D2D2D"/>
</svg>
